<svg width="216" height="66" viewBox="0 0 216 66" fill="none" xmlns="http://www.w3.org/2000/svg">
<path d="M6.50651 41.6334C4.12966 41.6334 2.94543 40.5834 2.94543 38.4759C2.97903 36.8673 3.00003 35.255 3.01262 33.6353C3.02102 32.0081 3.02942 30.381 3.02942 28.7501C3.02942 27.1341 3.02102 25.5144 3.01262 23.8946C3.00003 22.2786 2.97903 20.6626 2.94543 19.0541C2.94543 16.9503 4.12966 15.8965 6.50651 15.8965H13.7126C17.954 15.8965 21.0406 16.5035 22.9681 17.7136C24.8914 18.9275 25.8572 20.8935 25.8572 23.6116C25.8572 25.2798 25.3449 26.7096 24.3287 27.9011C23.3082 29.0852 21.9098 29.8746 20.1293 30.2693V30.4182C21.5151 30.7868 22.6573 31.5799 23.556 32.8012C24.4504 34.0151 25.1895 35.7726 25.7733 38.0737C26.0504 39.1871 25.8908 40.0621 25.2861 40.6951C24.6898 41.3206 23.7785 41.6334 22.5481 41.6334H21.2043C19.0291 41.6334 17.7776 40.6318 17.4417 38.6248C17.2485 37.4333 16.9714 36.3721 16.6018 35.4375C16.2407 34.4954 15.7283 33.747 15.0564 33.1885C14.3845 32.6225 13.4775 32.3395 12.3352 32.3395H10.7731C10.7731 33.3635 10.7731 34.3912 10.7731 35.4226C10.7731 36.4466 10.7899 37.4631 10.8235 38.4759C10.8235 40.5834 9.63504 41.6334 7.26239 41.6334H6.50651ZM10.7731 28.2586H12.2009C14.183 28.2586 15.6024 27.9532 16.4674 27.3351C17.3409 26.7096 17.7776 25.6931 17.7776 24.2819C17.7776 23.1201 17.3829 22.2861 16.6018 21.7797C15.8165 21.2733 14.5609 21.0201 12.8392 21.0201H10.8235C10.7899 21.9361 10.7731 22.934 10.7731 24.0138C10.7731 25.0861 10.7731 26.5011 10.7731 28.2586Z" fill="#03BD62"/>
<path d="M39.3397 36.6886C40.5702 36.67 41.8006 36.6588 43.0352 36.6588C44.2656 36.6588 45.4624 36.6439 46.6299 36.6141C49.0025 36.6141 50.1909 37.4445 50.1909 39.1014C50.1909 40.7919 49.0025 41.6334 46.6299 41.6334H35.0732C33.9309 41.6334 33.0491 41.3616 32.436 40.8142C31.8187 40.2706 31.5289 39.4887 31.5625 38.4759C31.5625 36.8375 31.5667 35.2104 31.5793 33.5906C31.5877 31.9746 31.5961 30.3586 31.5961 28.7501C31.5961 27.1341 31.5877 25.5144 31.5793 23.8946C31.5667 22.2786 31.5625 20.6626 31.5625 19.0541C31.5289 18.0338 31.8187 17.2519 32.436 16.7157C33.0491 16.1721 33.9309 15.8965 35.0732 15.8965H46.2099C48.5826 15.8965 49.771 16.7269 49.771 18.3838C49.771 20.0631 48.5826 20.9009 46.2099 20.9009C45.1013 20.8823 43.9633 20.8711 42.8 20.8711C41.6452 20.8711 40.4904 20.8562 39.3397 20.8265V26.516C40.2342 26.4862 41.1119 26.4713 41.9769 26.4713C42.8504 26.4713 43.7071 26.4638 44.547 26.4415C46.9196 26.4415 48.108 27.2718 48.108 28.9288C48.108 30.6193 46.9196 31.4608 44.547 31.4608C43.7071 31.431 42.8504 31.4161 41.9769 31.4161C41.1119 31.4161 40.2342 31.4087 39.3397 31.3863V36.6886Z" fill="#03BD62"/>
<path d="M64.3158 42.0057C58.7264 42.0057 55.4005 40.3227 54.3381 36.9566C54.0357 35.9439 54.2079 35.1545 54.8588 34.5885C55.5181 34.0151 56.379 33.7246 57.4456 33.7246H57.8152C58.4871 33.7246 59.0078 33.8401 59.3773 34.0672C59.7553 34.2869 60.108 34.5736 60.4356 34.9311C60.7589 35.2885 61.1579 35.7018 61.6282 36.1673C62.2203 36.6662 63.1988 36.912 64.5678 36.912C66.7724 36.912 67.8769 36.1598 67.8769 34.6481C67.8769 33.7842 67.5493 33.114 66.9026 32.6374C66.2643 32.1533 65.4328 31.7512 64.4166 31.431C63.3961 31.1033 62.3211 30.7719 61.1915 30.4331C60.0576 30.098 58.9826 29.666 57.9663 29.1373C56.9459 28.6011 56.1102 27.8713 55.4635 26.9479C54.8252 26.017 54.5061 24.7957 54.5061 23.2839C54.5061 20.4839 55.4215 18.4955 57.2608 17.3115C59.1086 16.1199 61.7206 15.5242 65.1053 15.5242C68.3724 15.5242 70.8374 16.1162 72.4962 17.2966C74.1633 18.4695 75.0914 20.1562 75.2846 22.3605C75.3728 23.3733 75.0872 24.1441 74.4279 24.6691C73.7644 25.1867 72.9077 25.4436 71.8579 25.4436C70.7912 25.4436 70.0354 25.1718 69.5902 24.6244C69.1409 24.0808 68.7923 23.2839 68.5488 22.2414C68.3472 21.4483 67.9483 20.9009 67.3561 20.603C66.7724 20.3051 65.983 20.1562 64.9877 20.1562C63.7783 20.1562 62.9384 20.4317 62.4681 20.9754C61.9977 21.5227 61.7626 22.2414 61.7626 23.135C61.7626 23.9989 62.0061 24.6914 62.5017 25.2053C63.0056 25.7117 63.6775 26.1138 64.5174 26.4117C65.3572 26.7021 66.2685 26.9628 67.2554 27.2011C68.2506 27.4394 69.2417 27.7075 70.2285 28.0053C71.2238 28.3032 72.1434 28.6979 72.9833 29.182C73.8232 29.6586 74.4951 30.299 74.999 31.1033C75.5029 31.9076 75.7549 32.9427 75.7549 34.2013C75.7549 36.7556 74.7848 38.6955 72.8489 40.0248C70.9214 41.3467 68.0784 42.0057 64.3158 42.0057Z" fill="#03BD62"/>
<path d="M113.391 45.1326C114.105 45.7209 114.806 46.2012 115.49 46.5773C116.183 46.9459 116.927 47.2773 117.724 47.5752C119.446 48.1709 120.63 48.8933 121.269 49.7497C121.915 50.6024 121.911 51.7343 121.252 53.1455L121.05 53.5328C120.42 54.8323 119.555 55.7892 118.447 56.4073C117.338 57.0217 116.028 57.085 114.516 56.601C112.387 55.9642 110.317 54.9663 108.301 53.6073C106.294 52.2556 104.58 50.5614 103.161 48.5284C102.859 48.5582 102.539 48.5731 102.204 48.5731C101.868 48.5731 101.536 48.5731 101.212 48.5731C88.8915 48.5731 82.7352 41.9453 82.7352 28.6896C82.7352 15.4749 88.8915 8.86566 101.212 8.86566C113.475 8.86566 119.606 15.4749 119.606 28.6896C119.606 36.4159 117.531 41.8968 113.391 45.1326ZM94.7287 28.6896C94.7287 31.8471 94.9218 34.3307 95.3166 36.1366C95.7197 37.935 96.3916 39.2048 97.3323 39.9495C98.2813 40.6867 99.5747 41.0516 101.212 41.0516C102.88 41.0516 104.173 40.6867 105.093 39.9495C106.021 39.2048 106.672 37.935 107.041 36.1366C107.419 34.3307 107.612 31.8471 107.612 28.6896C107.612 25.5321 107.419 23.0671 107.041 21.2873C106.672 19.5 106.021 18.2414 105.093 17.5042C104.173 16.7595 102.88 16.3871 101.212 16.3871C99.5747 16.3871 98.2813 16.7595 97.3323 17.5042C96.3916 18.2414 95.7197 19.5 95.3166 21.2873C94.9218 23.0671 94.7287 25.5321 94.7287 28.6896Z" fill="#8C52FF"/>
<path d="M153.409 15.8965C155.781 15.8965 156.97 16.9503 156.97 19.0541C156.97 20.6626 156.961 22.2786 156.953 23.8946C156.94 25.5144 156.936 27.1341 156.936 28.7501C156.936 30.381 156.94 32.0081 156.953 33.6353C156.961 35.255 156.97 36.8673 156.97 38.4759C156.97 40.5834 155.781 41.6334 153.409 41.6334H152.653C150.276 41.6334 149.092 40.5834 149.092 38.4759C149.125 36.8673 149.146 35.255 149.159 33.6353C149.167 32.0081 149.176 30.381 149.176 28.7501L149.142 23.8351H148.974L144.204 36.0928C143.532 37.8019 142.511 38.6546 141.146 38.6546C139.744 38.6546 138.736 37.7907 138.123 36.063L133.722 23.8351H133.52C133.541 26.0915 133.562 28.0724 133.587 29.7778C133.621 31.4868 133.659 33.0358 133.705 34.4247C133.747 35.8173 133.797 37.1577 133.856 38.4461C133.911 39.4812 133.642 40.2706 133.05 40.8142C132.466 41.3616 131.614 41.6334 130.497 41.6334C129.376 41.6334 128.515 41.3616 127.91 40.8142C127.314 40.2706 127.036 39.4887 127.07 38.4759C127.091 31.9932 127.091 25.5181 127.07 19.0541C127.036 18.0338 127.326 17.2519 127.944 16.7157C128.557 16.1721 129.438 15.8965 130.581 15.8965H134.427C136.443 15.8965 137.795 16.7269 138.492 18.3838L142.104 26.8139L145.111 18.4881C145.724 16.7604 147.067 15.8965 149.142 15.8965H153.409Z" fill="#FF3131"/>
<path d="M173.481 15.5242C175.295 15.5242 176.883 15.904 178.252 16.6561C179.617 17.412 180.759 18.6594 181.678 20.3945C182.607 22.1222 183.312 24.4531 183.795 27.3798C184.286 30.299 184.572 33.9406 184.652 38.2971C184.685 39.362 184.391 40.1849 183.778 40.7695C183.161 41.3467 182.283 41.6334 181.141 41.6334H180.519C178.143 41.6334 176.958 40.6653 176.958 38.729C176.958 38.245 176.958 37.7684 176.958 37.2992C176.958 36.8226 176.942 36.346 176.908 35.8694H169.5C169.5 36.2678 169.488 36.6848 169.467 37.1205C169.454 37.5599 169.45 38.0104 169.45 38.4758C169.45 40.5833 168.278 41.6334 165.939 41.6334C164.818 41.6334 163.949 41.3616 163.336 40.8142C162.718 40.2706 162.428 39.4812 162.462 38.4461C162.483 37.4258 162.504 36.4577 162.529 35.5417C162.563 34.6295 162.605 33.7507 162.664 32.9055C163 28.5192 163.621 25.0563 164.528 22.5244C165.435 19.9849 166.632 18.1828 168.123 17.1178C169.622 16.0566 171.407 15.5242 173.481 15.5242ZM169.584 31.4608H176.74C176.572 28.683 176.32 26.5234 175.984 24.9819C175.648 23.4329 175.22 22.3419 174.707 21.7052C174.191 21.0722 173.586 20.752 172.893 20.752C172.188 20.752 171.604 21.0722 171.146 21.7052C170.684 22.3419 170.34 23.4329 170.105 24.9819C169.87 26.5234 169.693 28.683 169.584 31.4608Z" fill="#FF3131"/>
<path d="M193.704 41.6334C191.327 41.6334 190.143 40.5834 190.143 38.4759C190.176 36.8673 190.197 35.255 190.21 33.6353C190.218 32.0081 190.227 30.381 190.227 28.7501C190.227 27.1341 190.218 25.5144 190.21 23.8946C190.197 22.2786 190.176 20.6626 190.143 19.0541C190.143 16.9503 191.327 15.8965 193.704 15.8965H200.91C205.151 15.8965 208.238 16.537 210.165 17.8179C212.089 19.0913 213.055 21.1467 213.055 23.984C213.055 26.0207 212.5 27.782 211.392 29.2714C210.291 30.7533 208.738 31.8927 206.722 32.697C204.715 33.5013 202.321 33.9034 199.533 33.9034H197.97C197.97 34.6779 197.97 35.4449 197.97 36.1971C197.97 36.9529 197.987 37.7125 198.021 38.4759C198.021 40.5834 196.832 41.6334 194.46 41.6334H193.704ZM197.97 28.6309H199.398C201.38 28.6309 202.8 28.2958 203.665 27.6181C204.538 26.933 204.975 25.8234 204.975 24.2819C204.975 23.1201 204.58 22.2861 203.799 21.7797C203.014 21.2733 201.758 21.0201 200.036 21.0201H198.021C197.987 22.0143 197.97 23.0755 197.97 24.2074C197.97 25.3319 197.97 26.8064 197.97 28.6309Z" fill="#FF3131"/>
</svg>
